<svg height="512pt" viewBox="0 -16 512 512" width="512pt" xmlns="http://www.w3.org/2000/svg"><path d="m503.648438 406.554688-91-45c-1.851563-.921876-4.277344-1.554688-6.648438-1.554688h-391c-8.285156 0-15 6.714844-15 15v90c0 8.285156 6.714844 15 15 15h391c2.332031 0 4.765625-.617188 6.648438-1.554688l91-45c5.113281-2.527343 8.351562-7.738281 8.351562-13.445312s-3.238281-10.917969-8.351562-13.445312zm-112.648438 43.445312h-301v-60h301zm-361-60h30v60h-30zm391 50.847656v-41.695312l42.160156 20.847656zm0 0"/><path d="m316 120c0-33.085938-26.914062-60-60-60s-60 26.914062-60 60 26.914062 60 60 60 60-26.914062 60-60zm-60 30c-16.542969 0-30-13.457031-30-30s13.457031-30 30-30 30 13.457031 30 30-13.457031 30-30 30zm0 0"/><path d="m466 60c0-33.085938-26.914062-60-60-60s-60 26.914062-60 60 26.914062 60 60 60 60-26.914062 60-60zm-60 30c-16.542969 0-30-13.457031-30-30s13.457031-30 30-30 30 13.457031 30 30-13.457031 30-30 30zm0 0"/><path d="m406 120c-46.949219 0-86.410156 30.742188-99.941406 72.71875-14.890625-8.109375-31.945313-12.71875-50.058594-12.71875s-35.167969 4.609375-50.058594 12.71875c-13.511718-41.917969-52.933594-72.71875-99.941406-72.71875-58.449219 0-106 47.101562-106 105v30c0 8.285156 6.714844 15 15 15h137.074219c-.703125 4.902344-1.074219 9.90625-1.074219 15v30c0 8.285156 6.714844 15 15 15h180c8.285156 0 15-6.714844 15-15v-30c0-5.09375-.371094-10.097656-1.074219-15h137.074219c8.285156 0 15-6.714844 15-15v-30c0-57.898438-47.550781-105-106-105zm-376 120v-15c0-41.355469 34.09375-75 76-75 36.761719 0 68.042969 27.027344 73.976562 62.648438-7.636718 8.019531-14.015624 17.242187-18.832031 27.351562zm301 60h-150v-15c0-41.355469 33.644531-75 75-75s75 33.644531 75 75zm151-60h-131.144531c-4.816407-10.109375-11.195313-19.332031-18.832031-27.351562 5.933593-35.621094 37.214843-62.648438 73.976562-62.648438 41.90625 0 76 33.644531 76 75zm0 0"/><path d="m166 60c0-33.085938-26.914062-60-60-60-16.003906 0-31.191406 6.183594-42.765625 17.414062-11.757813 11.410157-18.234375 26.53125-18.234375 42.585938s6.476562 31.175781 18.234375 42.585938c11.574219 11.230468 26.761719 17.414062 42.765625 17.414062 33.085938 0 60-26.914062 60-60zm-60 30c-16.804688 0-31-13.738281-31-30s14.195312-30 31-30c16.542969 0 30 13.457031 30 30s-13.457031 30-30 30zm0 0"/></svg>